<svg xmlns="http://www.w3.org/2000/svg" xmlns:xlink="http://www.w3.org/1999/xlink" width="500" zoomAndPan="magnify" viewBox="0 0 375 374.999991" height="500" preserveAspectRatio="xMidYMid meet" version="1.2"><defs><clipPath id="e8f2686b3b"><path d="M 69.230469 69.230469 L 305.480469 69.230469 L 305.480469 305.480469 L 69.230469 305.480469 Z M 69.230469 69.230469 "/></clipPath></defs><g id="7c79a70a45"><rect x="0" width="375" y="0" height="374.999991" style="fill:#ffffff;fill-opacity:1;stroke:none;"/><rect x="0" width="375" y="0" height="374.999991" style="fill:#0c4d53;fill-opacity:1;stroke:none;"/><g clip-rule="nonzero" clip-path="url(#e8f2686b3b)"><path style=" stroke:none;fill-rule:nonzero;fill:#44f1b6;fill-opacity:1;" d="M 305.535156 191.953125 L 261.136719 147.558594 L 272.132812 142.058594 L 301.746094 112.445312 L 262.320312 73.015625 L 232.707031 102.632812 L 227.207031 113.625 L 182.8125 69.230469 L 150.957031 101.085938 L 158.9375 109.066406 C 108.734375 113.503906 69.230469 155.761719 69.230469 207.097656 C 69.230469 261.378906 113.390625 305.535156 167.667969 305.535156 C 219.003906 305.535156 261.261719 266.03125 265.695312 215.828125 L 273.679688 223.808594 Z M 267.671875 207.097656 L 275.570312 199.199219 L 281.574219 205.203125 L 273.679688 213.101562 Z M 182.792969 163.863281 L 208.105469 158.238281 L 216.527344 166.65625 L 210.902344 191.972656 Z M 214.992188 127.914062 L 208.988281 121.910156 L 216.886719 114.011719 L 222.890625 120.015625 Z M 203.636719 116.554688 L 197.632812 110.550781 L 205.527344 102.652344 L 211.535156 108.660156 Z M 192.277344 105.199219 L 186.273438 99.195312 L 194.171875 91.296875 L 200.175781 97.300781 Z M 186.925781 110.550781 L 179.027344 118.449219 L 173.023438 112.445312 L 180.917969 104.546875 Z M 192.277344 115.90625 L 198.28125 121.910156 L 190.382812 129.808594 L 184.378906 123.804688 Z M 203.636719 127.261719 L 209.640625 133.269531 L 201.742188 141.164062 L 195.738281 135.160156 Z M 207.097656 146.519531 L 228.246094 125.371094 L 249.394531 146.519531 L 228.246094 167.667969 Z M 264.210938 177.132812 L 258.207031 171.128906 L 266.105469 163.230469 L 272.109375 169.234375 Z M 277.464844 174.589844 L 283.46875 180.59375 L 275.570312 188.492188 L 269.566406 182.488281 Z M 252.855469 165.773438 L 246.851562 159.769531 L 254.746094 151.871094 L 260.753906 157.878906 Z M 241.496094 165.125 L 247.5 171.128906 L 239.601562 179.027344 L 233.597656 173.023438 Z M 252.855469 176.480469 L 258.859375 182.488281 L 250.960938 190.382812 L 244.957031 184.378906 Z M 264.210938 187.839844 L 270.21875 193.84375 L 262.320312 201.742188 L 256.316406 195.738281 Z M 286.929688 199.851562 L 280.925781 193.84375 L 288.820312 185.949219 L 294.828125 191.953125 Z M 291.039062 112.445312 L 269.890625 133.59375 L 263.886719 127.589844 L 272.570312 118.90625 L 267.214844 113.554688 L 258.535156 122.234375 L 252.527344 116.230469 L 261.210938 107.550781 L 255.855469 102.195312 L 247.175781 110.878906 L 241.171875 104.871094 L 262.320312 83.722656 Z M 236.855469 111.261719 L 263.5 137.910156 L 255.492188 141.910156 L 232.847656 119.265625 Z M 188.816406 85.941406 L 180.917969 93.839844 L 174.914062 87.835938 L 182.8125 79.9375 Z M 169.5625 93.1875 L 175.566406 99.195312 L 167.667969 107.089844 L 161.664062 101.085938 Z M 129.808594 124.527344 L 129.808594 139.222656 C 129.808594 142.609375 131.425781 145.835938 134.132812 147.867188 L 142.164062 153.890625 C 143.335938 154.765625 143.769531 156.324219 143.226562 157.679688 L 140.054688 165.617188 C 137.980469 170.792969 140.265625 176.800781 145.253906 179.296875 L 150.738281 182.035156 C 151.839844 182.589844 152.523438 183.699219 152.523438 184.933594 C 152.523438 186.714844 151.074219 188.164062 149.289062 188.164062 L 129.996094 188.164062 C 126.222656 188.164062 122.671875 190.175781 120.734375 193.414062 L 113.464844 205.523438 C 112.878906 206.496094 111.820312 207.097656 110.691406 207.097656 L 101.488281 207.097656 C 96.355469 207.097656 91.898438 210.75 90.890625 215.78125 L 88.84375 226.027344 C 88.667969 226.917969 88.121094 227.691406 87.339844 228.160156 L 80.394531 232.328125 C 78.070312 224.3125 76.804688 215.851562 76.804688 207.097656 C 76.804688 170.503906 98.5625 138.914062 129.808594 124.527344 Z M 91.347656 256.316406 L 103.953125 256.316406 C 106.984375 256.316406 109.839844 255.128906 111.988281 252.988281 L 124.050781 240.925781 C 124.917969 240.058594 125.628906 239.066406 126.171875 237.980469 L 134.886719 220.546875 C 135.53125 219.257812 136.832031 218.453125 138.273438 218.453125 L 154.96875 218.453125 C 156.527344 218.453125 157.90625 219.390625 158.484375 220.832031 L 162.25 230.246094 C 163.984375 234.582031 168.125 237.382812 172.792969 237.382812 L 184.308594 237.382812 C 186.554688 237.382812 188.730469 236.726562 190.609375 235.476562 L 205.457031 225.578125 C 207.128906 224.464844 209.378906 224.851562 210.585938 226.453125 L 216.03125 233.714844 C 217.589844 235.796875 219.839844 237.289062 222.367188 237.917969 L 227.894531 239.300781 C 229.859375 239.796875 231.089844 241.734375 230.691406 243.71875 L 229.539062 249.480469 C 229.1875 251.246094 227.625 252.523438 225.824219 252.523438 L 211.738281 252.523438 C 206.34375 252.523438 201.65625 256.363281 200.597656 261.652344 L 199.25 268.410156 C 198.898438 270.175781 197.335938 271.457031 195.539062 271.457031 L 192.511719 271.457031 C 187.292969 271.457031 182.757812 274.996094 181.492188 280.058594 L 177.140625 297.460938 C 174.023438 297.789062 170.867188 297.957031 167.667969 297.957031 C 135.695312 297.960938 107.550781 281.347656 91.347656 256.316406 Z M 185.253906 296.238281 L 188.839844 281.902344 C 189.261719 280.210938 190.769531 279.03125 192.511719 279.03125 L 195.539062 279.03125 C 200.933594 279.03125 205.621094 275.191406 206.675781 269.902344 L 208.023438 263.144531 C 208.375 261.378906 209.941406 260.101562 211.738281 260.101562 L 225.824219 260.101562 C 231.222656 260.101562 235.90625 256.261719 236.964844 250.972656 L 238.117188 245.210938 C 239.304688 239.257812 235.625 233.441406 229.734375 231.964844 L 224.203125 230.582031 C 223.359375 230.371094 222.613281 229.871094 222.089844 229.179688 L 216.644531 221.917969 C 213.027344 217.09375 206.265625 215.941406 201.257812 219.285156 L 186.414062 229.179688 C 185.785156 229.59375 185.0625 229.816406 184.3125 229.816406 L 172.796875 229.816406 C 171.242188 229.816406 169.859375 228.882812 169.285156 227.4375 L 165.519531 218.023438 C 163.785156 213.6875 159.640625 210.886719 154.972656 210.886719 L 138.277344 210.886719 C 133.945312 210.886719 130.058594 213.292969 128.117188 217.164062 L 119.402344 234.59375 C 119.222656 234.957031 118.984375 235.292969 118.695312 235.578125 L 106.636719 247.636719 C 105.921875 248.347656 104.972656 248.746094 103.957031 248.746094 L 86.949219 248.746094 C 85.425781 245.8125 84.066406 242.789062 82.863281 239.679688 L 91.230469 234.664062 C 93.839844 233.097656 95.675781 230.492188 96.265625 227.515625 L 98.316406 217.273438 C 98.617188 215.769531 99.949219 214.671875 101.488281 214.671875 L 110.6875 214.671875 C 114.460938 214.671875 118.015625 212.660156 119.953125 209.425781 L 127.222656 197.3125 C 127.804688 196.34375 128.863281 195.742188 129.992188 195.742188 L 149.285156 195.742188 C 155.246094 195.742188 160.09375 190.894531 160.09375 184.9375 C 160.09375 180.820312 157.804688 177.113281 154.117188 175.269531 L 148.636719 172.53125 C 147.117188 171.769531 146.449219 170.007812 147.078125 168.433594 L 150.253906 160.496094 C 152.066406 155.96875 150.605469 150.765625 146.703125 147.839844 L 138.671875 141.816406 C 137.863281 141.203125 137.378906 140.234375 137.378906 139.222656 L 137.378906 121.441406 C 146.402344 118.242188 156.074219 116.433594 166.140625 116.269531 L 201.761719 151.890625 L 167.6875 159.464844 L 188.816406 180.59375 L 176.351562 193.0625 L 181.703125 198.414062 L 194.171875 185.949219 L 215.300781 207.078125 L 222.871094 173.003906 L 258.496094 208.625 C 257.773438 252.027344 226.480469 288.117188 185.253906 296.238281 Z M 185.253906 296.238281 "/></g></g></svg>